<svg xmlns="http://www.w3.org/2000/svg" viewBox="30 10 80 175"><defs><linearGradient id="g1" x1="108.94" y1="-173.22" x2="202.78" y2="-173.22" gradientTransform="matrix(0.76, -0.65, 0.65, 0.76, 66.49, 373.75)" gradientUnits="userSpaceOnUse"><stop offset="0" stop-color="#63338d"/><stop offset="0.64" stop-color="#65338c"/><stop offset="0.7" stop-color="#703286"/><stop offset="0.81" stop-color="#8f3077"/><stop offset="0.86" stop-color="#a22f6e"/><stop offset="1" stop-color="#65338c"/></linearGradient><linearGradient id="g2" x1="108.93" y1="-190.81" x2="219.76" y2="-190.81" gradientTransform="matrix(0.76, -0.65, 0.65, 0.76, 66.49, 373.75)" gradientUnits="userSpaceOnUse"><stop offset="0" stop-color="#b73b82"/><stop offset="0.17" stop-color="#bc3e79"/><stop offset="0.45" stop-color="#cb455f"/><stop offset="0.62" stop-color="#d54b4d"/><stop offset="0.89" stop-color="#ff8e5f"/><stop offset="1" stop-color="#df7747"/></linearGradient><linearGradient id="g3" x1="108.62" y1="-219.54" x2="231.47" y2="-219.54" gradientTransform="matrix(0.76, -0.65, 0.65, 0.76, 66.49, 373.75)" gradientUnits="userSpaceOnUse"><stop offset="0" stop-color="#dc5041"/><stop offset="0.16" stop-color="#de5940"/><stop offset="0.41" stop-color="#e3733e"/><stop offset="0.55" stop-color="#e7833d"/><stop offset="0.84" stop-color="#ebb533"/><stop offset="0.92" stop-color="#e5c500"/><stop offset="1" stop-color="#edaf46"/></linearGradient></defs><path fill="url(#g1)" d="M42,176.44c-19.45-41.22,38.83-32.93,67-66.06,0,0,3.87,9-2.78,18.91C77.66,159.56,48.9,141.42,42,176.44Z"/><path fill="#232120" opacity="0.15" d="M42,176.44C7.36,136.05,85.53,106,91.86,74.34c0,0,31.51,32.23,9.75,47.77C56.48,158.66,42.87,139.11,42,176.44Z"/><path fill="url(#g2)" d="M42,176.44C7.35,136.06,87.2,100.22,94.76,67.49c0,0,31.67,32.09,8.6,48.74C55.41,155.17,38.27,138.13,42,176.44Z"/><path fill="#232120" opacity="0.1" d="M42,176.44c-45.13-45.29,21.44-59,24.57-156,0,0,19.73,23.76,24.9,35.31,0,0,7,9.18,1.43,25.49C77.92,121.1,18.85,133.82,42,176.44Z"/><path fill="url(#g3)" d="M42,176.44C-3.22,131.23,62.29,114,66.62,16c0,0,19.73,23.76,24.83,35.37,0,0,6.94,9.19,1.15,25.73C76.92,117.55,14.61,135.5,42,176.44Z"/></svg>
