<svg xmlns="http://www.w3.org/2000/svg" viewBox="38 85 220 52">
  <defs>
    <linearGradient id="lg1" x1="204.64" y1="121.84" x2="260.64" y2="121.84" gradientTransform="matrix(0.76, -0.65, 0.65, 0.76, -12.66, 167.23)" gradientUnits="userSpaceOnUse">
      <stop offset="0" stop-color="#63338d"/><stop offset="0.64" stop-color="#65338c"/><stop offset="0.7" stop-color="#703286"/><stop offset="0.81" stop-color="#8f3077"/><stop offset="0.86" stop-color="#a22f6e"/><stop offset="1" stop-color="#65338c"/>
    </linearGradient>
    <linearGradient id="lg2" x1="204.64" y1="111.35" x2="270.78" y2="111.35" gradientTransform="matrix(0.76, -0.65, 0.65, 0.76, -12.66, 167.23)" gradientUnits="userSpaceOnUse">
      <stop offset="0" stop-color="#b73b82"/><stop offset="0.17" stop-color="#bc3e79"/><stop offset="0.45" stop-color="#cb455f"/><stop offset="0.62" stop-color="#d54b4d"/><stop offset="0.89" stop-color="#ff8e5f"/><stop offset="1" stop-color="#df7747"/>
    </linearGradient>
    <linearGradient id="lg3" x1="204.46" y1="94.2" x2="277.76" y2="94.2" gradientTransform="matrix(0.76, -0.65, 0.65, 0.76, -12.66, 167.23)" gradientUnits="userSpaceOnUse">
      <stop offset="0" stop-color="#dc5041"/><stop offset="0.16" stop-color="#de5940"/><stop offset="0.41" stop-color="#e3733e"/><stop offset="0.55" stop-color="#e7833d"/><stop offset="0.84" stop-color="#ebb533"/><stop offset="0.92" stop-color="#e5c500"/><stop offset="1" stop-color="#edaf46"/>
    </linearGradient>
  </defs>
  <!-- FLAYNN text — white -->
  <path fill="#FFFFFF" d="M52.2,95.71c-1.12,0-1.74.13-2.12.63a3.44,3.44,0,0,0-.5,2.18V108h14.1c1,0,1.25.31,1.25,1.25v2.49c0,.88-.25,1.25-1.25,1.25H49.58v16.84c0,1-.31,1.25-1.31,1.25H44.78c-1,0-1.31-.25-1.31-1.25V97.27c0-2.49.62-3.93,1.62-4.92s2.81-1.63,5-1.63h15c.81,0,1.25.19,1.25,1.19v2.62c0,.87-.31,1.18-1.25,1.18Z"/>
  <path fill="#FFFFFF" d="M78.27,124.47c0,1.24.43,1.68,1.81,1.68H91c1.06,0,1.31.25,1.31,1.12V130c0,.81-.25,1.12-1.31,1.12H78.14c-4.36,0-6-1.87-6-5.62V92c0-1,.37-1.31,1.37-1.31H76.9c1,0,1.37.32,1.37,1.31Z"/>
  <path fill="#FFFFFF" d="M114.69,90.72c2.06,0,2.68.25,3.3,2,3.56,10,7.68,23.2,11.11,35.68a8,8,0,0,1,.43,1.93c0,.5-.31.75-1.25.75h-3c-1.43,0-1.81-.13-2.12-1.31-.68-2.81-1.62-6.36-2.56-9.61H106.14c-.93,3.25-1.87,6.8-2.55,9.61-.32,1.18-.69,1.31-2.12,1.31h-3c-.93,0-1.25-.25-1.25-.75a7.62,7.62,0,0,1,.44-1.93c3.43-12.48,7.55-25.64,11.1-35.68.63-1.75,1.25-2,3.31-2Zm-1.5,6c-1.93,5.68-3.87,12.23-5.61,18.22h11.6c-1.75-6-3.68-12.54-5.61-18.22Z"/>
  <path fill="#FFFFFF" d="M143.37,112.68a122.75,122.75,0,0,0,7.86-20.9c.19-.68.63-1.06,1.62-1.06h3c.93,0,1.31.13,1.31.75a7,7,0,0,1-.44,1.87A124.76,124.76,0,0,1,146.24,118v11.85c0,1.06-.37,1.25-1.37,1.25H141.5c-1,0-1.37-.19-1.37-1.25V118a121.86,121.86,0,0,1-10.48-24.64,6.94,6.94,0,0,1-.43-1.87c0-.62.37-.75,1.31-.75h3c1,0,1.44.38,1.62,1.06a117.89,117.89,0,0,0,7.86,20.9Z"/>
  <path fill="#FFFFFF" d="M168.32,99.64H168v30.13c0,1.06-.32,1.31-1.31,1.31h-3c-1,0-1.31-.25-1.31-1.31V92.47c0-1.43.44-1.75,1.87-1.75h3.31a2.74,2.74,0,0,1,2.93,1.75l16.16,29.69H187V92c0-1,.31-1.31,1.31-1.31h3c1,0,1.31.32,1.31,1.31v37.36c0,1.38-.44,1.69-1.87,1.69H187.4a2.78,2.78,0,0,1-2.93-1.69Z"/>
  <path fill="#FFFFFF" d="M207.11,99.64h-.31v30.13c0,1.06-.32,1.31-1.31,1.31h-3c-1,0-1.31-.25-1.31-1.31V92.47c0-1.43.44-1.75,1.87-1.75h3.31a2.75,2.75,0,0,1,2.93,1.75l16.15,29.69h.32l-.87,8.79s-.1-.27-.75-1.55Z"/>
  <!-- Flame icon -->
  <path fill="url(#lg1)" d="M224.89,131c-11.6-24.6,23.18-19.65,40-39.42a12.41,12.41,0,0,1-1.66,11.28C246.17,120.88,229,110.05,224.89,131Z"/>
  <path fill="#232120" opacity="0.15" d="M224.89,131c-20.67-24.11,26-42,29.75-60.93,0,0,18.81,19.23,5.82,28.51C233.53,120.34,225.41,108.67,224.89,131Z"/>
  <path fill="url(#lg2)" d="M224.89,131c-20.68-24.1,27-45.49,31.48-65,0,0,18.9,19.15,5.14,29.09C232.89,118.25,222.66,108.08,224.89,131Z"/>
  <path fill="#232120" opacity="0.1" d="M224.89,131c-26.93-27,12.8-35.22,14.67-93.09,0,0,11.77,14.18,14.86,21.07,0,0,4.14,5.48.85,15.21C246.32,97.92,211.07,105.52,224.89,131Z"/>
  <path fill="url(#lg3)" d="M224.89,131c-27-27,12.11-37.25,14.69-95.73,0,0,11.77,14.18,14.82,21.1,0,0,4.14,5.49.68,15.36C245.73,95.8,208.54,106.52,224.89,131Z"/>
</svg>
